<svg width="1440" height="1200" viewBox="0 0 1440 1200" fill="none" xmlns="http://www.w3.org/2000/svg">
<g opacity="0.5">
<path d="M281.435 307.498C281.435 307.498 400.287 791.9 237.633 1016.74C119.409 1180.16 -71.89 1132.11 -204.011 1284.52C-483.06 1606.4 -215.096 2375.31 -215.096 2375.31" stroke="url(#paint0_linear_1_539)" stroke-width="2"/>
<path d="M-122.746 1037.07C-122.746 1037.07 -167.508 1533.83 -394.317 1693.72C-559.172 1809.94 -724.531 1702.42 -898.956 1803.7C-1267.35 2017.63 -1263.39 2831.88 -1263.39 2831.88" stroke="url(#paint1_linear_1_539)" stroke-width="2"/>
<path d="M-115.376 937.999C-115.376 937.999 -160.138 1434.76 -386.948 1594.65C-551.802 1710.86 -717.161 1603.34 -891.586 1704.63C-1259.98 1918.55 -1256.02 2732.8 -1256.02 2732.8" stroke="url(#paint2_linear_1_539)" stroke-width="2"/>
<path d="M-104.241 804.27C-104.241 804.27 -149.004 1301.03 -375.813 1460.92C-540.667 1577.13 -706.026 1469.61 -880.452 1570.9C-1248.85 1784.82 -1244.89 2599.07 -1244.89 2599.07" stroke="url(#paint3_linear_1_539)" stroke-width="2"/>
<path d="M-89.1206 706.077C-89.1206 706.077 -133.883 1202.83 -360.692 1362.72C-525.546 1478.94 -690.906 1371.42 -865.331 1472.71C-1233.73 1686.63 -1229.77 2500.88 -1229.77 2500.88" stroke="url(#paint4_linear_1_539)" stroke-width="2"/>
<path d="M-69.5391 572.669C-69.5391 572.669 -114.301 1069.43 -341.111 1229.32C-505.965 1345.53 -671.324 1238.01 -845.749 1339.3C-1214.15 1553.22 -1210.18 2367.47 -1210.18 2367.47" stroke="url(#paint5_linear_1_539)" stroke-width="2"/>
<path d="M-44.775 441.449C-44.775 441.449 -89.5373 938.205 -316.347 1098.1C-481.201 1214.31 -646.56 1106.79 -820.985 1208.08C-1189.38 1422 -1185.42 2236.25 -1185.42 2236.25" stroke="url(#paint6_linear_1_539)" stroke-width="2"/>
<path d="M-13.8087 347.043C-13.8087 347.043 -58.571 843.799 -285.38 1003.69C-450.235 1119.9 -615.594 1012.39 -790.019 1113.67C-1158.42 1327.59 -1154.45 2141.85 -1154.45 2141.85" stroke="url(#paint7_linear_1_539)" stroke-width="2"/>
<path d="M24.7591 255.481C24.7591 255.481 -20.0032 752.237 -246.813 912.128C-411.667 1028.34 -577.026 920.826 -751.451 1022.11C-1119.85 1236.03 -1115.89 2050.29 -1115.89 2050.29" stroke="url(#paint8_linear_1_539)" stroke-width="2"/>
<path d="M72.8078 133.518C72.8078 133.518 28.0456 630.274 -198.764 790.165C-363.618 906.38 -528.977 798.863 -703.402 900.148C-1071.8 1114.07 -1067.84 1928.32 -1067.84 1928.32" stroke="url(#paint9_linear_1_539)" stroke-width="2"/>
<path d="M132.638 54.2012C132.638 54.2012 87.8761 550.958 -138.933 710.848C-303.788 827.063 -469.147 719.546 -643.572 820.831C-1011.97 1034.75 -1008.01 1849.01 -1008.01 1849.01" stroke="url(#paint10_linear_1_539)" stroke-width="2"/>
<path d="M206.325 -12.4446C206.325 -12.4446 161.563 484.312 -65.2465 644.202C-230.101 760.417 -395.46 652.9 -569.885 754.186C-938.283 968.106 -934.321 1782.36 -934.321 1782.36" stroke="url(#paint11_linear_1_539)" stroke-width="2"/>
<path d="M292.952 -58.717C292.952 -58.717 248.19 438.039 21.3805 597.93C-143.474 714.145 -308.833 606.628 -483.258 707.913C-851.656 921.834 -847.694 1736.09 -847.694 1736.09" stroke="url(#paint12_linear_1_539)" stroke-width="2"/>
<path d="M390.123 -79.4547C390.123 -79.4547 345.36 417.302 118.551 577.192C-46.3032 693.407 -211.662 585.89 -386.088 687.175C-754.485 901.096 -750.523 1715.35 -750.523 1715.35" stroke="url(#paint13_linear_1_539)" stroke-width="2"/>
<path d="M489.421 -82.6635C489.421 -82.6635 444.659 414.093 217.85 573.983C52.9954 690.198 -112.364 582.682 -286.789 683.967C-655.187 897.888 -651.225 1712.14 -651.225 1712.14" stroke="url(#paint14_linear_1_539)" stroke-width="2"/>
<path d="M588.695 -86.7192C588.695 -86.7192 543.933 410.037 317.124 569.928C152.269 686.142 -13.0899 578.626 -187.515 679.911C-555.913 893.832 -551.951 1708.09 -551.951 1708.09" stroke="url(#paint15_linear_1_539)" stroke-width="2"/>
<path d="M685.06 -110.899C685.06 -110.899 640.298 385.857 413.488 545.747C248.634 661.962 83.2749 554.446 -91.1503 655.731C-459.548 869.652 -455.586 1683.9 -455.586 1683.9" stroke="url(#paint16_linear_1_539)" stroke-width="2"/>
<path d="M784.756 -178.154C784.756 -178.154 739.993 318.603 513.184 478.493C348.33 594.708 182.971 487.191 8.54536 588.476C-359.853 802.397 -355.89 1616.65 -355.89 1616.65" stroke="url(#paint17_linear_1_539)" stroke-width="2"/>
<path d="M847.31 -255.343C847.31 -255.343 802.548 241.414 575.739 401.304C410.884 517.519 245.525 410.002 71.0999 511.287C-297.298 725.208 -293.336 1539.46 -293.336 1539.46" stroke="url(#paint18_linear_1_539)" stroke-width="2"/>
<path d="M895.599 -342.172C895.599 -342.172 850.837 154.585 624.027 314.475C459.173 430.69 293.814 323.173 119.389 424.458C-249.009 638.379 -245.047 1452.63 -245.047 1452.63" stroke="url(#paint19_linear_1_539)" stroke-width="2"/>
<path d="M933.384 -434.058C933.384 -434.058 888.622 62.6984 661.812 222.589C496.958 338.804 331.599 231.287 157.174 332.572C-211.224 546.493 -207.262 1360.75 -207.262 1360.75" stroke="url(#paint20_linear_1_539)" stroke-width="2"/>
<path d="M963.227 -528.823C963.227 -528.823 918.465 -32.0664 691.655 127.824C526.801 244.039 361.442 136.522 187.017 237.807C-181.381 451.728 -177.419 1265.98 -177.419 1265.98" stroke="url(#paint21_linear_1_539)" stroke-width="2"/>
<path d="M986.708 -625.34C986.708 -625.34 941.946 -128.583 715.137 31.3072C550.282 147.522 384.923 40.0055 210.498 141.291C-157.9 355.211 -153.937 1169.46 -153.937 1169.46" stroke="url(#paint22_linear_1_539)" stroke-width="2"/>
<path d="M1007.83 -744.095C1007.83 -744.095 963.069 -247.339 736.26 -87.4485C571.406 28.7664 406.047 -78.7503 231.622 22.5348C-136.776 236.456 -132.814 1050.71 -132.814 1050.71" stroke="url(#paint23_linear_1_539)" stroke-width="2"/>
<path d="M-94.8826 1173.67C-94.8826 1173.67 -88.8974 1672.4 -298.272 1854.53C-450.453 1986.91 -625.889 1896.76 -789.11 2015.26C-1133.84 2265.53 -1047.1 3075.16 -1047.1 3075.16" stroke="url(#paint24_linear_1_539)" stroke-width="2"/>
<path d="M-97.6272 1039.36C-97.6272 1039.36 -91.6419 1538.09 -301.016 1720.22C-453.198 1852.6 -628.633 1762.45 -791.854 1880.95C-1136.59 2131.22 -1049.84 2940.85 -1049.84 2940.85" stroke="url(#paint25_linear_1_539)" stroke-width="2"/>
<path d="M-96.5909 940.011C-96.5909 940.011 -90.6056 1438.74 -299.98 1620.87C-452.161 1753.25 -627.597 1663.1 -790.818 1781.6C-1135.55 2031.87 -1048.81 2841.5 -1048.81 2841.5" stroke="url(#paint26_linear_1_539)" stroke-width="2"/>
<path d="M-91.5354 805.785C-91.5354 805.785 -85.5501 1304.52 -294.924 1486.64C-447.106 1619.02 -622.541 1528.88 -785.763 1647.37C-1130.5 1897.65 -1043.75 2707.28 -1043.75 2707.28" stroke="url(#paint27_linear_1_539)" stroke-width="2"/>
<path d="M-81.9588 706.894C-81.9588 706.894 -75.9735 1205.63 -285.348 1387.75C-437.529 1520.13 -612.965 1429.99 -776.186 1548.48C-1120.92 1798.76 -1034.18 2608.39 -1034.18 2608.39" stroke="url(#paint28_linear_1_539)" stroke-width="2"/>
<path d="M-67.1044 572.657C-67.1044 572.657 -61.1192 1071.39 -270.493 1253.52C-422.675 1385.89 -598.11 1295.75 -761.332 1414.25C-1106.07 1664.52 -1019.32 2474.15 -1019.32 2474.15" stroke="url(#paint29_linear_1_539)" stroke-width="2"/>
<path d="M-45.8986 440.592C-45.8986 440.592 -39.9133 939.325 -249.288 1121.45C-401.469 1253.83 -576.905 1163.68 -740.126 1282.18C-1084.86 1532.46 -998.116 2342.09 -998.116 2342.09" stroke="url(#paint30_linear_1_539)" stroke-width="2"/>
<path d="M-16.842 345.582C-16.842 345.582 -10.8567 844.315 -220.231 1026.44C-372.413 1158.82 -547.848 1068.67 -711.069 1187.17C-1055.8 1437.45 -969.06 2247.07 -969.06 2247.07" stroke="url(#paint31_linear_1_539)" stroke-width="2"/>
<path d="M22.1123 254.182C22.1123 254.182 28.0976 752.916 -181.277 935.042C-333.458 1067.42 -508.894 977.274 -672.115 1095.77C-1016.85 1346.05 -930.105 2155.68 -930.105 2155.68" stroke="url(#paint32_linear_1_539)" stroke-width="2"/>
<path d="M73.5669 134.19C73.5669 134.19 79.5522 632.923 -129.822 815.049C-282.004 947.426 -457.439 857.282 -620.66 975.779C-965.395 1226.05 -878.651 2035.68 -878.651 2035.68" stroke="url(#paint33_linear_1_539)" stroke-width="2"/>
<path d="M140.099 60.4019C140.099 60.4019 146.084 559.135 -63.2898 741.261C-215.471 873.638 -390.907 783.494 -554.128 901.991C-898.863 1152.27 -812.119 1961.9 -812.119 1961.9" stroke="url(#paint34_linear_1_539)" stroke-width="2"/>
<path d="M221.572 5.56093C221.572 5.56093 227.557 504.294 18.183 686.42C-133.999 818.797 -309.434 728.653 -472.655 847.15C-817.39 1097.42 -730.646 1907.05 -730.646 1907.05" stroke="url(#paint35_linear_1_539)" stroke-width="2"/>
<path d="M316.123 -24.9571C316.123 -24.9571 322.108 473.776 112.734 655.902C-39.4476 788.279 -214.883 698.135 -378.104 816.632C-722.839 1066.91 -636.095 1876.54 -636.095 1876.54" stroke="url(#paint36_linear_1_539)" stroke-width="2"/>
<path d="M414.585 -38.2424C414.585 -38.2424 420.57 460.491 211.196 642.617C59.0143 774.993 -116.421 684.85 -279.642 803.347C-624.377 1053.62 -537.633 1863.25 -537.633 1863.25" stroke="url(#paint37_linear_1_539)" stroke-width="2"/>
<path d="M512.929 -52.3762C512.929 -52.3762 518.914 446.357 309.54 628.483C157.358 760.86 -18.0774 670.716 -181.299 789.213C-526.033 1039.49 -439.289 1849.12 -439.289 1849.12" stroke="url(#paint38_linear_1_539)" stroke-width="2"/>
<path d="M606.339 -86.2257C606.339 -86.2257 612.324 412.507 402.95 594.633C250.768 727.01 75.3327 636.866 -87.8886 755.364C-432.623 1005.64 -345.879 1815.27 -345.879 1815.27" stroke="url(#paint39_linear_1_539)" stroke-width="2"/>
<path d="M698.676 -163.271C698.676 -163.271 704.662 335.462 495.288 517.588C343.106 649.965 167.67 559.821 4.4492 678.318C-340.285 928.593 -253.541 1738.22 -253.541 1738.22" stroke="url(#paint40_linear_1_539)" stroke-width="2"/>
<path d="M753.06 -246.42C753.06 -246.42 759.045 252.314 549.671 434.44C397.489 566.816 222.054 476.672 58.8327 595.17C-285.902 845.444 -199.158 1655.07 -199.158 1655.07" stroke="url(#paint41_linear_1_539)" stroke-width="2"/>
<path d="M792.266 -337.711C792.266 -337.711 798.251 161.022 588.877 343.148C436.696 475.525 261.26 385.381 98.0389 503.878C-246.695 754.153 -159.952 1563.78 -159.952 1563.78" stroke="url(#paint42_linear_1_539)" stroke-width="2"/>
<path d="M820.514 -432.965C820.514 -432.965 826.5 65.7685 617.125 247.894C464.944 380.271 289.508 290.127 126.287 408.625C-218.447 658.899 -131.703 1468.53 -131.703 1468.53" stroke="url(#paint43_linear_1_539)" stroke-width="2"/>
<path d="M840.564 -530.275C840.564 -530.275 846.549 -31.5417 637.175 150.584C484.993 282.961 309.558 192.817 146.337 311.314C-198.398 561.589 -111.654 1371.22 -111.654 1371.22" stroke="url(#paint44_linear_1_539)" stroke-width="2"/>
<path d="M854.106 -628.68C854.106 -628.68 860.091 -129.947 650.717 52.1791C498.535 184.556 323.1 94.4119 159.879 212.909C-184.856 463.184 -98.112 1272.81 -98.112 1272.81" stroke="url(#paint45_linear_1_539)" stroke-width="2"/>
<path d="M863.045 -748.965C863.045 -748.965 869.03 -250.232 659.656 -68.1059C507.474 64.2707 332.039 -25.8732 168.817 92.6243C-175.917 342.899 -89.1731 1152.53 -89.1731 1152.53" stroke="url(#paint46_linear_1_539)" stroke-width="2"/>
<path d="M757.544 -678.249C757.544 -678.249 876.396 -193.847 713.742 30.9888C595.519 194.409 404.219 146.367 272.098 298.77C-6.95092 620.657 261.013 1389.56 261.013 1389.56" stroke="url(#paint47_linear_1_539)" stroke-width="2"/>
</g>
<defs>
<linearGradient id="paint0_linear_1_539" x1="336.282" y1="1541.95" x2="-269.942" y2="1140.86" gradientUnits="userSpaceOnUse">
<stop stop-color="#F37413"/>
<stop offset="0.5625" stop-color="#C9874A"/>
<stop offset="1"/>
</linearGradient>
<linearGradient id="paint1_linear_1_539" x1="-471.434" y1="2222.53" x2="-914.703" y2="1646.42" gradientUnits="userSpaceOnUse">
<stop stop-color="#F37413"/>
<stop offset="0.5625" stop-color="#C9874A"/>
<stop offset="1"/>
</linearGradient>
<linearGradient id="paint2_linear_1_539" x1="-464.064" y1="2123.45" x2="-907.333" y2="1547.35" gradientUnits="userSpaceOnUse">
<stop stop-color="#F37413"/>
<stop offset="0.5625" stop-color="#C9874A"/>
<stop offset="1"/>
</linearGradient>
<linearGradient id="paint3_linear_1_539" x1="-452.93" y1="1989.73" x2="-896.199" y2="1413.62" gradientUnits="userSpaceOnUse">
<stop stop-color="#F37413"/>
<stop offset="0.5625" stop-color="#C9874A"/>
<stop offset="1"/>
</linearGradient>
<linearGradient id="paint4_linear_1_539" x1="-437.809" y1="1891.53" x2="-881.078" y2="1315.43" gradientUnits="userSpaceOnUse">
<stop stop-color="#F37413"/>
<stop offset="0.5625" stop-color="#C9874A"/>
<stop offset="1"/>
</linearGradient>
<linearGradient id="paint5_linear_1_539" x1="-418.228" y1="1758.13" x2="-861.496" y2="1182.02" gradientUnits="userSpaceOnUse">
<stop stop-color="#F37413"/>
<stop offset="0.5625" stop-color="#C9874A"/>
<stop offset="1"/>
</linearGradient>
<linearGradient id="paint6_linear_1_539" x1="-393.463" y1="1626.9" x2="-836.732" y2="1050.8" gradientUnits="userSpaceOnUse">
<stop stop-color="#F37413"/>
<stop offset="0.5625" stop-color="#C9874A"/>
<stop offset="1"/>
</linearGradient>
<linearGradient id="paint7_linear_1_539" x1="-362.497" y1="1532.5" x2="-805.766" y2="956.392" gradientUnits="userSpaceOnUse">
<stop stop-color="#F37413"/>
<stop offset="0.5625" stop-color="#C9874A"/>
<stop offset="1"/>
</linearGradient>
<linearGradient id="paint8_linear_1_539" x1="-323.929" y1="1440.94" x2="-767.198" y2="864.83" gradientUnits="userSpaceOnUse">
<stop stop-color="#F37413"/>
<stop offset="0.5625" stop-color="#C9874A"/>
<stop offset="1"/>
</linearGradient>
<linearGradient id="paint9_linear_1_539" x1="-275.881" y1="1318.97" x2="-719.15" y2="742.867" gradientUnits="userSpaceOnUse">
<stop stop-color="#F37413"/>
<stop offset="0.5625" stop-color="#C9874A"/>
<stop offset="1"/>
</linearGradient>
<linearGradient id="paint10_linear_1_539" x1="-216.05" y1="1239.66" x2="-659.319" y2="663.55" gradientUnits="userSpaceOnUse">
<stop stop-color="#F37413"/>
<stop offset="0.5625" stop-color="#C9874A"/>
<stop offset="1"/>
</linearGradient>
<linearGradient id="paint11_linear_1_539" x1="-142.363" y1="1173.01" x2="-585.632" y2="596.904" gradientUnits="userSpaceOnUse">
<stop stop-color="#F37413"/>
<stop offset="0.5625" stop-color="#C9874A"/>
<stop offset="1"/>
</linearGradient>
<linearGradient id="paint12_linear_1_539" x1="-55.7363" y1="1126.74" x2="-499.005" y2="550.632" gradientUnits="userSpaceOnUse">
<stop stop-color="#F37413"/>
<stop offset="0.5625" stop-color="#C9874A"/>
<stop offset="1"/>
</linearGradient>
<linearGradient id="paint13_linear_1_539" x1="41.4342" y1="1106" x2="-401.835" y2="529.894" gradientUnits="userSpaceOnUse">
<stop stop-color="#F37413"/>
<stop offset="0.5625" stop-color="#C9874A"/>
<stop offset="1"/>
</linearGradient>
<linearGradient id="paint14_linear_1_539" x1="140.733" y1="1102.79" x2="-302.536" y2="526.685" gradientUnits="userSpaceOnUse">
<stop stop-color="#F37413"/>
<stop offset="0.5625" stop-color="#C9874A"/>
<stop offset="1"/>
</linearGradient>
<linearGradient id="paint15_linear_1_539" x1="240.007" y1="1098.74" x2="-203.262" y2="522.629" gradientUnits="userSpaceOnUse">
<stop stop-color="#F37413"/>
<stop offset="0.5625" stop-color="#C9874A"/>
<stop offset="1"/>
</linearGradient>
<linearGradient id="paint16_linear_1_539" x1="336.371" y1="1074.56" x2="-106.897" y2="498.449" gradientUnits="userSpaceOnUse">
<stop stop-color="#F37413"/>
<stop offset="0.5625" stop-color="#C9874A"/>
<stop offset="1"/>
</linearGradient>
<linearGradient id="paint17_linear_1_539" x1="436.067" y1="1007.3" x2="-7.20179" y2="431.195" gradientUnits="userSpaceOnUse">
<stop stop-color="#F37413"/>
<stop offset="0.5625" stop-color="#C9874A"/>
<stop offset="1"/>
</linearGradient>
<linearGradient id="paint18_linear_1_539" x1="498.622" y1="930.113" x2="55.3528" y2="354.006" gradientUnits="userSpaceOnUse">
<stop stop-color="#F37413"/>
<stop offset="0.5625" stop-color="#C9874A"/>
<stop offset="1"/>
</linearGradient>
<linearGradient id="paint19_linear_1_539" x1="546.911" y1="843.284" x2="103.642" y2="267.177" gradientUnits="userSpaceOnUse">
<stop stop-color="#F37413"/>
<stop offset="0.5625" stop-color="#C9874A"/>
<stop offset="1"/>
</linearGradient>
<linearGradient id="paint20_linear_1_539" x1="584.695" y1="751.398" x2="141.427" y2="175.291" gradientUnits="userSpaceOnUse">
<stop stop-color="#F37413"/>
<stop offset="0.5625" stop-color="#C9874A"/>
<stop offset="1"/>
</linearGradient>
<linearGradient id="paint21_linear_1_539" x1="614.538" y1="656.633" x2="171.27" y2="80.5258" gradientUnits="userSpaceOnUse">
<stop stop-color="#F37413"/>
<stop offset="0.5625" stop-color="#C9874A"/>
<stop offset="1"/>
</linearGradient>
<linearGradient id="paint22_linear_1_539" x1="638.02" y1="560.116" x2="194.751" y2="-15.991" gradientUnits="userSpaceOnUse">
<stop stop-color="#F37413"/>
<stop offset="0.5625" stop-color="#C9874A"/>
<stop offset="1"/>
</linearGradient>
<linearGradient id="paint23_linear_1_539" x1="659.143" y1="441.36" x2="215.874" y2="-134.747" gradientUnits="userSpaceOnUse">
<stop stop-color="#F37413"/>
<stop offset="0.5625" stop-color="#C9874A"/>
<stop offset="1"/>
</linearGradient>
<linearGradient id="paint24_linear_1_539" x1="-321.214" y1="2388.44" x2="-820.769" y2="1860.39" gradientUnits="userSpaceOnUse">
<stop stop-color="#F37413"/>
<stop offset="0.5625" stop-color="#C9874A"/>
<stop offset="1"/>
</linearGradient>
<linearGradient id="paint25_linear_1_539" x1="-323.958" y1="2254.13" x2="-823.514" y2="1726.08" gradientUnits="userSpaceOnUse">
<stop stop-color="#F37413"/>
<stop offset="0.5625" stop-color="#C9874A"/>
<stop offset="1"/>
</linearGradient>
<linearGradient id="paint26_linear_1_539" x1="-322.922" y1="2154.78" x2="-822.478" y2="1626.74" gradientUnits="userSpaceOnUse">
<stop stop-color="#F37413"/>
<stop offset="0.5625" stop-color="#C9874A"/>
<stop offset="1"/>
</linearGradient>
<linearGradient id="paint27_linear_1_539" x1="-317.866" y1="2020.55" x2="-817.422" y2="1492.51" gradientUnits="userSpaceOnUse">
<stop stop-color="#F37413"/>
<stop offset="0.5625" stop-color="#C9874A"/>
<stop offset="1"/>
</linearGradient>
<linearGradient id="paint28_linear_1_539" x1="-308.29" y1="1921.66" x2="-807.846" y2="1393.62" gradientUnits="userSpaceOnUse">
<stop stop-color="#F37413"/>
<stop offset="0.5625" stop-color="#C9874A"/>
<stop offset="1"/>
</linearGradient>
<linearGradient id="paint29_linear_1_539" x1="-293.435" y1="1787.43" x2="-792.991" y2="1259.38" gradientUnits="userSpaceOnUse">
<stop stop-color="#F37413"/>
<stop offset="0.5625" stop-color="#C9874A"/>
<stop offset="1"/>
</linearGradient>
<linearGradient id="paint30_linear_1_539" x1="-272.23" y1="1655.36" x2="-771.785" y2="1127.32" gradientUnits="userSpaceOnUse">
<stop stop-color="#F37413"/>
<stop offset="0.5625" stop-color="#C9874A"/>
<stop offset="1"/>
</linearGradient>
<linearGradient id="paint31_linear_1_539" x1="-243.173" y1="1560.35" x2="-742.729" y2="1032.31" gradientUnits="userSpaceOnUse">
<stop stop-color="#F37413"/>
<stop offset="0.5625" stop-color="#C9874A"/>
<stop offset="1"/>
</linearGradient>
<linearGradient id="paint32_linear_1_539" x1="-204.219" y1="1468.95" x2="-703.775" y2="940.907" gradientUnits="userSpaceOnUse">
<stop stop-color="#F37413"/>
<stop offset="0.5625" stop-color="#C9874A"/>
<stop offset="1"/>
</linearGradient>
<linearGradient id="paint33_linear_1_539" x1="-152.764" y1="1348.96" x2="-652.32" y2="820.914" gradientUnits="userSpaceOnUse">
<stop stop-color="#F37413"/>
<stop offset="0.5625" stop-color="#C9874A"/>
<stop offset="1"/>
</linearGradient>
<linearGradient id="paint34_linear_1_539" x1="-86.2319" y1="1275.17" x2="-585.788" y2="747.126" gradientUnits="userSpaceOnUse">
<stop stop-color="#F37413"/>
<stop offset="0.5625" stop-color="#C9874A"/>
<stop offset="1"/>
</linearGradient>
<linearGradient id="paint35_linear_1_539" x1="-4.75902" y1="1220.33" x2="-504.315" y2="692.285" gradientUnits="userSpaceOnUse">
<stop stop-color="#F37413"/>
<stop offset="0.5625" stop-color="#C9874A"/>
<stop offset="1"/>
</linearGradient>
<linearGradient id="paint36_linear_1_539" x1="89.792" y1="1189.81" x2="-409.764" y2="661.767" gradientUnits="userSpaceOnUse">
<stop stop-color="#F37413"/>
<stop offset="0.5625" stop-color="#C9874A"/>
<stop offset="1"/>
</linearGradient>
<linearGradient id="paint37_linear_1_539" x1="188.254" y1="1176.53" x2="-311.302" y2="648.482" gradientUnits="userSpaceOnUse">
<stop stop-color="#F37413"/>
<stop offset="0.5625" stop-color="#C9874A"/>
<stop offset="1"/>
</linearGradient>
<linearGradient id="paint38_linear_1_539" x1="286.598" y1="1162.39" x2="-212.958" y2="634.348" gradientUnits="userSpaceOnUse">
<stop stop-color="#F37413"/>
<stop offset="0.5625" stop-color="#C9874A"/>
<stop offset="1"/>
</linearGradient>
<linearGradient id="paint39_linear_1_539" x1="380.008" y1="1128.54" x2="-119.548" y2="600.499" gradientUnits="userSpaceOnUse">
<stop stop-color="#F37413"/>
<stop offset="0.5625" stop-color="#C9874A"/>
<stop offset="1"/>
</linearGradient>
<linearGradient id="paint40_linear_1_539" x1="472.345" y1="1051.5" x2="-27.2104" y2="523.453" gradientUnits="userSpaceOnUse">
<stop stop-color="#F37413"/>
<stop offset="0.5625" stop-color="#C9874A"/>
<stop offset="1"/>
</linearGradient>
<linearGradient id="paint41_linear_1_539" x1="526.729" y1="968.349" x2="27.1732" y2="440.305" gradientUnits="userSpaceOnUse">
<stop stop-color="#F37413"/>
<stop offset="0.5625" stop-color="#C9874A"/>
<stop offset="1"/>
</linearGradient>
<linearGradient id="paint42_linear_1_539" x1="565.935" y1="877.058" x2="66.3793" y2="349.014" gradientUnits="userSpaceOnUse">
<stop stop-color="#F37413"/>
<stop offset="0.5625" stop-color="#C9874A"/>
<stop offset="1"/>
</linearGradient>
<linearGradient id="paint43_linear_1_539" x1="594.183" y1="781.804" x2="94.6275" y2="253.76" gradientUnits="userSpaceOnUse">
<stop stop-color="#F37413"/>
<stop offset="0.5625" stop-color="#C9874A"/>
<stop offset="1"/>
</linearGradient>
<linearGradient id="paint44_linear_1_539" x1="614.233" y1="684.494" x2="114.677" y2="156.45" gradientUnits="userSpaceOnUse">
<stop stop-color="#F37413"/>
<stop offset="0.5625" stop-color="#C9874A"/>
<stop offset="1"/>
</linearGradient>
<linearGradient id="paint45_linear_1_539" x1="627.775" y1="586.089" x2="128.219" y2="58.0444" gradientUnits="userSpaceOnUse">
<stop stop-color="#F37413"/>
<stop offset="0.5625" stop-color="#C9874A"/>
<stop offset="1"/>
</linearGradient>
<linearGradient id="paint46_linear_1_539" x1="636.714" y1="465.804" x2="137.158" y2="-62.2406" gradientUnits="userSpaceOnUse">
<stop stop-color="#F37413"/>
<stop offset="0.5625" stop-color="#C9874A"/>
<stop offset="1"/>
</linearGradient>
<linearGradient id="paint47_linear_1_539" x1="812.391" y1="556.207" x2="206.167" y2="155.109" gradientUnits="userSpaceOnUse">
<stop stop-color="#F37413"/>
<stop offset="0.5625" stop-color="#C9874A"/>
<stop offset="1"/>
</linearGradient>
</defs>
</svg>
