<svg width="42" height="41" viewBox="0 0 42 41" fill="none" xmlns="http://www.w3.org/2000/svg">
<path d="M36.8222 18.8824V10.4118C36.8222 7.91564 35.8164 5.52171 34.0261 3.75665C32.2358 1.9916 29.8076 1 27.2757 1H11.0465C8.51464 1 6.08644 1.9916 4.29612 3.75665C2.50579 5.52171 1.5 7.91564 1.5 10.4118V23.5883C1.5 24.8243 1.74693 26.0482 2.22669 27.1901C2.70645 28.332 3.40964 29.3695 4.29612 30.2435C6.08644 32.0085 8.51464 33.0001 11.0465 33.0001H22.9988" stroke="#F37413" stroke-width="1.25" stroke-linecap="round" stroke-linejoin="round"/>
<path d="M1.99609 26.4121L7.2276 20.3886C7.91465 19.7158 8.81635 19.2978 9.78011 19.2052C10.7439 19.1125 11.7105 19.3511 12.5164 19.8803C13.3223 20.4096 14.2889 20.6481 15.2527 20.5555C16.2164 20.4629 17.1181 20.0448 17.8052 19.3721L22.2539 14.9862C23.5321 13.7217 25.2245 12.9461 27.0291 12.7978C28.8337 12.6496 30.633 13.1383 32.1059 14.1768L36.8219 17.7721M11.5426 13.5556C11.9589 13.5531 12.3705 13.4698 12.7541 13.3105C13.1377 13.1512 13.4856 12.919 13.7782 12.6271C14.0707 12.3352 14.3021 11.9893 14.459 11.6093C14.616 11.2292 14.6955 10.8224 14.693 10.412C14.6905 10.0017 14.606 9.59586 14.4444 9.2177C14.2828 8.83954 14.0473 8.49646 13.7512 8.20805C13.4551 7.91964 13.1043 7.69155 12.7188 7.5368C12.3333 7.38205 11.9207 7.30368 11.5044 7.30615C10.6639 7.31114 9.85971 7.64514 9.2689 8.23467C8.67809 8.8242 8.34903 9.62097 8.35409 10.4497C8.35916 11.2784 8.69794 12.0712 9.2959 12.6537C9.89387 13.2362 10.702 13.5606 11.5426 13.5556Z" stroke="#F37413" stroke-width="1.25" stroke-linecap="round" stroke-linejoin="round"/>
<path d="M41.3558 28.2942C41.3558 28.1389 41.2699 27.9836 41.2269 27.8283C41.1606 27.5543 41.0745 27.2854 40.9692 27.0236C40.8976 26.8542 40.7973 26.6848 40.7114 26.5012C40.6255 26.3177 40.4966 26.0777 40.3677 25.8801C40.2389 25.6824 40.067 25.5836 40.067 25.4706C40.067 25.3577 39.7806 25.1177 39.6231 24.9483C39.4656 24.7789 39.3224 24.6659 39.1649 24.5248L38.635 24.0589L38.1195 23.72C37.9172 23.5979 37.7067 23.4895 37.4895 23.3953L36.931 23.1412C36.6971 23.0558 36.4579 22.9851 36.215 22.9295C36.0225 22.8736 35.8264 22.8312 35.6279 22.8024L35.2985 22.6471C34.7142 20.9827 33.6182 19.5392 32.163 18.5176C30.7077 17.496 28.9657 16.947 27.1792 16.947C25.3927 16.947 23.6506 17.496 22.1954 18.5176C20.7402 19.5392 19.6442 20.9827 19.0599 22.6471L18.8021 22.7177C18.6036 22.7465 18.4074 22.7889 18.215 22.8447C17.972 22.9004 17.7329 22.9711 17.499 23.0565L16.9405 23.3106C16.7233 23.4048 16.5128 23.5132 16.3104 23.6353L15.7949 24.0589L15.2651 24.4965C15.1076 24.6377 14.9501 24.7648 14.8069 24.92C14.6637 25.0753 14.5062 25.273 14.363 25.4424C14.2198 25.6118 14.1052 25.7671 13.9906 25.9506C13.8761 26.1342 13.7615 26.3601 13.647 26.5718C13.5324 26.7836 13.4608 26.9248 13.3892 27.0942C13.2839 27.356 13.1977 27.6249 13.1315 27.8989C13.1315 28.0542 13.0312 28.2095 13.0026 28.3648C12.9134 28.8066 12.8655 29.2555 12.8594 29.706C12.8661 30.137 12.9092 30.5667 12.9883 30.9907C12.9883 31.1318 13.0599 31.2589 13.0885 31.4001C13.1593 31.6774 13.2453 31.9508 13.3462 32.2189L13.5181 32.6283C13.6441 32.9006 13.7876 33.1646 13.9477 33.4189L14.1482 33.7295C14.1688 33.7691 14.1927 33.8068 14.2198 33.8424L14.2914 33.9413C14.9583 34.8179 15.8231 35.5295 16.8173 36.0196C17.8115 36.5097 18.9077 36.7648 20.0193 36.7648H24.3152V34.8307C23.8801 35.0795 23.3862 35.211 22.8832 35.2119C22.1075 35.2047 21.3661 34.8951 20.8212 34.3507C20.5596 34.0838 20.3538 33.7688 20.2158 33.4235C20.0778 33.0782 20.0102 32.7095 20.0168 32.3384C20.0235 31.9673 20.1043 31.6012 20.2546 31.2609C20.4049 30.9206 20.6218 30.6129 20.8928 30.3554L25.1887 26.2612C25.7232 25.7533 26.4369 25.4699 27.1792 25.4706C27.9375 25.4738 28.6637 25.7733 29.1983 26.3036L33.4942 30.5389C34.0276 31.0679 34.327 31.7836 34.327 32.5295C34.327 33.2754 34.0276 33.9911 33.4942 34.5201C32.9596 35.0503 32.2335 35.3499 31.4751 35.353C30.9714 35.3577 30.476 35.2259 30.0432 34.9719V36.7648H34.3391C35.4506 36.7648 36.5469 36.5097 37.5411 36.0196C38.5353 35.5295 39.4001 34.8179 40.067 33.9413L40.1386 33.8707C40.1657 33.8351 40.1896 33.7973 40.2102 33.7577L40.4107 33.4471C40.5707 33.1929 40.7142 32.9288 40.8403 32.6566L41.0121 32.2471C41.1131 31.979 41.1991 31.7057 41.2699 31.4283C41.2699 31.2871 41.3415 31.1601 41.3701 31.0189C41.4508 30.5856 41.4939 30.1464 41.499 29.706C41.4973 29.2319 41.4494 28.7591 41.3558 28.2942Z" fill="#F37413"/>
<path d="M28.1963 27.2919C27.9286 27.0333 27.5687 26.8884 27.1939 26.8884C26.8191 26.8884 26.4592 27.0333 26.1915 27.2919L21.8956 31.3861C21.7436 31.5097 21.6192 31.6629 21.53 31.8361C21.4409 32.0093 21.3889 32.1987 21.3774 32.3926C21.3659 32.5865 21.3952 32.7806 21.4632 32.9629C21.5313 33.1451 21.6368 33.3116 21.7731 33.4518C21.9094 33.592 22.0736 33.703 22.2554 33.7778C22.4372 33.8526 22.6327 33.8897 22.8297 33.8866C23.0266 33.8835 23.2209 33.8404 23.4002 33.7599C23.5795 33.6795 23.74 33.5634 23.8717 33.419L25.7476 31.6261V39.5885C25.7476 39.9629 25.8985 40.322 26.167 40.5867C26.4356 40.8515 26.7998 41.0002 27.1796 41.0002C27.5594 41.0002 27.9236 40.8515 28.1922 40.5867C28.4607 40.322 28.6116 39.9629 28.6116 39.5885V31.6967L30.4588 33.532C30.592 33.6643 30.7503 33.7693 30.9248 33.841C31.0993 33.9127 31.2865 33.9496 31.4755 33.9496C31.6646 33.9496 31.8518 33.9127 32.0262 33.841C32.2008 33.7693 32.3591 33.6643 32.4923 33.532C32.6265 33.4007 32.733 33.2446 32.8057 33.0725C32.8784 32.9005 32.9158 32.716 32.9158 32.5296C32.9158 32.3432 32.8784 32.1587 32.8057 31.9867C32.733 31.8146 32.6265 31.6585 32.4923 31.5272L28.1963 27.2919Z" fill="#F37413"/>
</svg>
