<svg width="562" height="438" viewBox="0 0 562 438" fill="none" xmlns="http://www.w3.org/2000/svg">
<path d="M405.52 142.484C420.911 157.876 431.037 174.077 435.898 191.089C440.758 208.1 440.691 225.044 435.695 241.921C430.43 258.797 420.304 274.729 405.317 289.715C394.111 300.921 382.433 309.359 370.282 315.03C357.861 320.7 345.305 323.535 332.613 323.535C319.787 323.67 307.096 320.97 294.54 315.435C281.849 309.764 269.765 301.191 258.289 289.715C251.539 282.964 245.598 275.269 240.468 266.628C235.067 257.987 231.355 249.549 229.329 241.313C227.844 236.048 227.912 231.39 229.532 227.339C231.152 223.289 233.65 220.116 237.025 217.821C240.265 215.391 243.843 214.108 247.759 213.973C251.539 213.703 255.049 214.648 258.289 216.809C261.53 218.969 263.96 222.614 265.58 227.744C267.2 234.225 269.698 240.233 273.073 245.769C276.449 251.304 280.431 256.367 285.022 260.957C294.068 270.003 303.518 275.809 313.374 278.374C322.96 280.939 332.681 280.399 342.537 276.754C352.393 273.108 362.249 266.358 372.104 256.502C381.825 246.781 388.576 236.925 392.356 226.934C396.137 216.944 396.812 207.088 394.381 197.367C391.681 187.646 385.808 178.263 376.762 169.217C372.442 164.896 367.514 161.049 361.979 157.673C356.308 154.163 350.233 151.463 343.752 149.573C338.487 147.817 334.774 145.32 332.613 142.079C330.183 138.839 329.103 135.329 329.373 131.548C329.373 127.768 330.521 124.325 332.816 121.22C334.976 117.98 337.946 115.55 341.727 113.929C345.507 112.309 349.828 112.039 354.688 113.119C363.059 114.74 371.834 118.25 381.015 123.65C390.196 129.051 398.364 135.329 405.52 142.484Z" fill="#F37413"/>
<path d="M147.745 148.32C157.871 138.194 168.132 130.498 178.528 125.233C188.924 120.237 199.32 117.672 209.716 117.537C220.112 117.402 230.508 119.832 240.904 124.828C251.299 130.093 261.628 137.856 271.889 148.117L340.745 216.973C346.01 222.239 348.643 227.572 348.643 232.972C348.643 238.373 346.078 243.638 340.947 248.769C335.952 253.764 330.754 256.262 325.353 256.262C319.953 256.262 314.62 253.629 309.355 248.363L240.296 179.305C228.685 167.694 217.276 161.551 206.07 160.876C195 160.336 184.469 165.061 174.478 175.052C164.487 185.043 159.829 195.506 160.504 206.442C161.179 217.648 167.322 229.057 178.933 240.668L247.992 309.726C253.257 314.992 255.89 320.325 255.89 325.725C255.89 331.126 253.392 336.324 248.397 341.319C243.401 346.315 238.271 348.745 233.005 348.61C227.605 348.61 222.272 345.977 217.006 340.712L148.15 271.856C134.514 258.219 125.401 244.381 120.81 230.339C116.22 216.568 116.22 202.797 120.81 189.026C125.266 175.39 134.244 161.821 147.745 148.32Z" fill="#F37413"/>
</svg>