<svg width="1244" height="437" viewBox="0 0 1244 437" fill="none" xmlns="http://www.w3.org/2000/svg">
<path d="M405.52 142.485C420.911 157.876 431.037 174.078 435.898 191.089C440.758 208.101 440.691 225.045 435.695 241.921C430.43 258.798 420.304 274.729 405.317 289.715C394.111 300.921 382.433 309.36 370.282 315.03C357.861 320.701 345.305 323.536 332.613 323.536C319.787 323.671 307.096 320.971 294.54 315.435C281.849 309.765 269.765 301.191 258.289 289.715C251.539 282.965 245.598 275.269 240.468 266.628C235.067 257.988 231.355 249.549 229.329 241.314C227.844 236.048 227.912 231.39 229.532 227.34C231.152 223.289 233.65 220.117 237.025 217.821C240.265 215.391 243.843 214.109 247.759 213.974C251.539 213.704 255.049 214.649 258.289 216.809C261.53 218.969 263.96 222.614 265.58 227.745C267.2 234.225 269.698 240.233 273.073 245.769C276.449 251.304 280.431 256.367 285.022 260.958C294.068 270.004 303.518 275.809 313.374 278.374C322.96 280.94 332.681 280.399 342.537 276.754C352.393 273.109 362.249 266.358 372.104 256.502C381.825 246.782 388.576 236.926 392.356 226.935C396.137 216.944 396.812 207.088 394.381 197.367C391.681 187.646 385.808 178.263 376.762 169.217C372.442 164.897 367.514 161.049 361.979 157.674C356.308 154.163 350.233 151.463 343.752 149.573C338.487 147.818 334.774 145.32 332.613 142.08C330.183 138.84 329.103 135.329 329.373 131.549C329.373 127.769 330.521 124.326 332.816 121.22C334.976 117.98 337.946 115.55 341.727 113.93C345.507 112.31 349.828 112.04 354.688 113.12C363.059 114.74 371.834 118.25 381.015 123.651C390.196 129.051 398.364 135.329 405.52 142.485Z" fill="#F37413"/>
<path d="M147.745 148.32C157.871 138.194 168.132 130.498 178.528 125.233C188.924 120.237 199.32 117.672 209.716 117.537C220.112 117.402 230.508 119.832 240.904 124.828C251.299 130.093 261.628 137.856 271.889 148.117L340.745 216.973C346.01 222.239 348.643 227.572 348.643 232.972C348.643 238.373 346.078 243.638 340.947 248.769C335.952 253.764 330.754 256.262 325.353 256.262C319.953 256.262 314.62 253.629 309.355 248.363L240.296 179.305C228.685 167.694 217.276 161.551 206.07 160.876C195 160.336 184.469 165.061 174.478 175.052C164.487 185.043 159.829 195.506 160.504 206.442C161.179 217.648 167.322 229.057 178.933 240.668L247.992 309.726C253.257 314.992 255.89 320.325 255.89 325.725C255.89 331.126 253.392 336.324 248.397 341.319C243.401 346.315 238.271 348.745 233.005 348.61C227.605 348.61 222.272 345.977 217.006 340.712L148.15 271.856C134.514 258.219 125.401 244.381 120.81 230.339C116.22 216.568 116.22 202.797 120.81 189.026C125.266 175.39 134.244 161.821 147.745 148.32Z" fill="#F37413"/>
<path d="M559.659 185.145C553.289 185.145 547.642 184.338 542.716 182.724C537.875 181.025 533.798 178.562 530.486 175.335C527.174 172.108 524.668 168.074 522.97 163.233C521.356 158.307 520.549 152.616 520.549 146.162V102.848C520.549 99.5355 521.398 97.0301 523.097 95.3315C524.796 93.6329 527.259 92.7836 530.486 92.7836C533.628 92.7836 536.049 93.6329 537.747 95.3315C539.446 97.0301 540.295 99.5355 540.295 102.848V146.289C540.295 153.593 541.951 159.114 545.264 162.851C548.576 166.502 553.374 168.328 559.659 168.328C565.944 168.328 570.7 166.502 573.927 162.851C577.24 159.114 578.896 153.593 578.896 146.289V102.848C578.896 99.5355 579.745 97.0301 581.444 95.3315C583.142 93.6329 585.563 92.7836 588.705 92.7836C591.847 92.7836 594.225 93.6329 595.839 95.3315C597.538 97.0301 598.387 99.5355 598.387 102.848V146.162C598.387 154.74 596.901 161.959 593.928 167.819C591.041 173.594 586.709 177.925 580.934 180.813C575.244 183.701 568.152 185.145 559.659 185.145ZM628.983 184.89C625.84 184.89 623.42 184.04 621.721 182.342C620.107 180.643 619.301 178.223 619.301 175.08V129.855C619.301 126.713 620.107 124.335 621.721 122.721C623.42 121.023 625.755 120.173 628.728 120.173C631.785 120.173 634.121 121.023 635.734 122.721C637.348 124.335 638.155 126.713 638.155 129.855V137.117L636.754 132.913C638.707 128.751 641.595 125.566 645.416 123.358C649.323 121.065 653.74 119.919 658.665 119.919C663.676 119.919 667.795 120.895 671.023 122.849C674.25 124.717 676.67 127.605 678.284 131.512C679.898 135.333 680.705 140.217 680.705 146.162V175.08C680.705 178.223 679.855 180.643 678.157 182.342C676.543 184.04 674.165 184.89 671.023 184.89C667.965 184.89 665.587 184.04 663.889 182.342C662.275 180.643 661.468 178.223 661.468 175.08V147.054C661.468 142.722 660.661 139.622 659.048 137.754C657.519 135.8 655.141 134.824 651.914 134.824C647.837 134.824 644.567 136.098 642.104 138.646C639.726 141.193 638.537 144.591 638.537 148.837V175.08C638.537 181.62 635.352 184.89 628.983 184.89ZM712.136 183.743C708.824 183.743 706.276 182.851 704.493 181.068C702.709 179.284 701.817 176.736 701.817 173.424V104.249C701.817 100.937 702.709 98.389 704.493 96.6055C706.276 94.822 708.824 93.9302 712.136 93.9302H742.966C749.335 93.9302 754.771 94.8644 759.272 96.7329C763.773 98.6013 767.171 101.277 769.464 104.759C771.842 108.241 773.031 112.402 773.031 117.243C773.031 122.594 771.502 127.138 768.444 130.875C765.387 134.611 761.183 137.117 755.832 138.391V136.352C762.032 137.457 766.831 139.92 770.228 143.741C773.71 147.478 775.451 152.362 775.451 158.392C775.451 166.375 772.691 172.617 767.171 177.119C761.65 181.535 754.049 183.743 744.367 183.743H712.136ZM720.672 169.093H741.692C746.787 169.093 750.524 168.116 752.902 166.163C755.28 164.124 756.469 161.152 756.469 157.245C756.469 153.338 755.28 150.408 752.902 148.455C750.524 146.502 746.787 145.525 741.692 145.525H720.672V169.093ZM720.672 130.875H739.526C744.452 130.875 748.104 129.94 750.482 128.072C752.86 126.203 754.049 123.401 754.049 119.664C754.049 116.012 752.86 113.252 750.482 111.383C748.104 109.515 744.452 108.581 739.526 108.581H720.672V130.875ZM823.901 185.145C817.191 185.145 811.331 183.828 806.32 181.195C801.394 178.562 797.573 174.783 794.855 169.857C792.137 164.931 790.778 159.114 790.778 152.404C790.778 147.393 791.543 142.892 793.071 138.9C794.6 134.909 796.808 131.512 799.696 128.709C802.668 125.821 806.193 123.656 810.27 122.212C814.346 120.683 818.89 119.919 823.901 119.919C830.61 119.919 836.428 121.235 841.354 123.868C846.365 126.501 850.229 130.238 852.947 135.079C855.749 139.92 857.151 145.695 857.151 152.404C857.151 157.5 856.344 162.044 854.73 166.035C853.201 170.027 850.993 173.467 848.106 176.354C845.218 179.242 841.693 181.45 837.532 182.979C833.455 184.423 828.912 185.145 823.901 185.145ZM823.901 170.749C826.703 170.749 829.124 170.07 831.162 168.711C833.201 167.352 834.814 165.356 836.003 162.723C837.192 160.005 837.787 156.566 837.787 152.404C837.787 146.204 836.513 141.661 833.965 138.773C831.417 135.8 828.062 134.314 823.901 134.314C821.183 134.314 818.763 134.951 816.639 136.225C814.601 137.499 812.987 139.495 811.798 142.213C810.694 144.845 810.142 148.243 810.142 152.404C810.142 158.604 811.416 163.233 813.964 166.29C816.512 169.263 819.824 170.749 823.901 170.749ZM878.833 184.635C876.455 184.635 874.544 183.998 873.1 182.724C871.656 181.365 870.892 179.667 870.807 177.628C870.807 175.59 871.656 173.509 873.355 171.386L893.101 147.181V155.844L874.756 133.422C872.972 131.214 872.123 129.091 872.208 127.053C872.293 125.014 873.057 123.358 874.501 122.084C875.945 120.81 877.856 120.173 880.234 120.173C882.527 120.173 884.438 120.556 885.967 121.32C887.495 122.084 888.939 123.358 890.298 125.142L903.929 142.595H897.177L910.809 125.142C912.252 123.358 913.739 122.084 915.267 121.32C916.796 120.556 918.665 120.173 920.873 120.173C923.251 120.173 925.162 120.853 926.605 122.212C928.049 123.486 928.771 125.142 928.771 127.18C928.856 129.218 928.007 131.299 926.223 133.422L907.878 155.844V147.181L927.752 171.386C929.536 173.424 930.385 175.463 930.3 177.501C930.215 179.539 929.408 181.238 927.879 182.597C926.436 183.955 924.525 184.635 922.147 184.635C919.854 184.635 917.943 184.253 916.414 183.488C914.97 182.639 913.526 181.365 912.082 179.667L897.177 160.685H903.674L888.769 179.667C887.41 181.28 885.967 182.512 884.438 183.361C882.994 184.21 881.126 184.635 878.833 184.635ZM958.147 184.762C955.005 184.762 952.585 183.871 950.886 182.087C949.272 180.219 948.465 177.628 948.465 174.316V130.747C948.465 127.35 949.272 124.76 950.886 122.976C952.585 121.108 955.005 120.173 958.147 120.173C961.205 120.173 963.54 121.108 965.154 122.976C966.853 124.76 967.702 127.35 967.702 130.747V174.316C967.702 177.628 966.895 180.219 965.282 182.087C963.668 183.871 961.29 184.762 958.147 184.762ZM958.147 109.727C954.58 109.727 951.82 108.92 949.867 107.307C947.998 105.608 947.064 103.23 947.064 100.173C947.064 97.0301 947.998 94.6521 949.867 93.0384C951.82 91.3398 954.58 90.4906 958.147 90.4906C961.715 90.4906 964.432 91.3398 966.301 93.0384C968.169 94.6521 969.103 97.0301 969.103 100.173C969.103 103.23 968.169 105.608 966.301 107.307C964.432 108.92 961.715 109.727 958.147 109.727ZM997.331 184.89C994.189 184.89 991.768 184.04 990.07 182.342C988.456 180.643 987.649 178.223 987.649 175.08V129.855C987.649 126.713 988.456 124.335 990.07 122.721C991.768 121.023 994.104 120.173 997.076 120.173C1000.13 120.173 1002.47 121.023 1004.08 122.721C1005.7 124.335 1006.5 126.713 1006.5 129.855V137.117L1005.1 132.913C1007.06 128.751 1009.94 125.566 1013.77 123.358C1017.67 121.065 1022.09 119.919 1027.01 119.919C1032.02 119.919 1036.14 120.895 1039.37 122.849C1042.6 124.717 1045.02 127.605 1046.63 131.512C1048.25 135.333 1049.05 140.217 1049.05 146.162V175.08C1049.05 178.223 1048.2 180.643 1046.51 182.342C1044.89 184.04 1042.51 184.89 1039.37 184.89C1036.31 184.89 1033.94 184.04 1032.24 182.342C1030.62 180.643 1029.82 178.223 1029.82 175.08V147.054C1029.82 142.722 1029.01 139.622 1027.4 137.754C1025.87 135.8 1023.49 134.824 1020.26 134.824C1016.19 134.824 1012.92 136.098 1010.45 138.646C1008.07 141.193 1006.89 144.591 1006.89 148.837V175.08C1006.89 181.62 1003.7 184.89 997.331 184.89ZM1098.57 208.075C1093.99 208.075 1089.57 207.693 1085.33 206.929C1081.16 206.165 1077.47 205.018 1074.24 203.489C1072.29 202.64 1070.89 201.536 1070.04 200.177C1069.27 198.818 1068.93 197.374 1069.02 195.846C1069.19 194.317 1069.7 192.958 1070.55 191.769C1071.48 190.58 1072.63 189.731 1073.99 189.221C1075.35 188.796 1076.79 188.924 1078.32 189.603C1082.06 191.302 1085.5 192.406 1088.64 192.916C1091.87 193.425 1094.63 193.68 1096.92 193.68C1102.35 193.68 1106.43 192.448 1109.15 189.985C1111.87 187.523 1113.23 183.743 1113.23 178.647V168.965H1114.37C1113.1 172.872 1110.46 176.057 1106.47 178.52C1102.48 180.983 1098.07 182.214 1093.22 182.214C1087.62 182.214 1082.74 180.94 1078.57 178.393C1074.41 175.76 1071.18 172.108 1068.89 167.437C1066.6 162.681 1065.45 157.203 1065.45 151.003C1065.45 146.332 1066.09 142.085 1067.36 138.263C1068.72 134.442 1070.59 131.172 1072.97 128.454C1075.43 125.736 1078.36 123.656 1081.76 122.212C1085.24 120.683 1089.06 119.919 1093.22 119.919C1098.24 119.919 1102.65 121.15 1106.47 123.613C1110.38 125.991 1112.97 129.133 1114.24 133.04L1112.97 137.117V129.855C1112.97 126.713 1113.78 124.335 1115.39 122.721C1117.09 121.023 1119.47 120.173 1122.52 120.173C1125.58 120.173 1127.92 121.023 1129.53 122.721C1131.15 124.335 1131.95 126.713 1131.95 129.855V176.482C1131.95 186.928 1129.06 194.784 1123.29 200.05C1117.6 205.4 1109.36 208.075 1098.57 208.075ZM1098.96 167.819C1101.84 167.819 1104.31 167.139 1106.35 165.781C1108.47 164.422 1110.13 162.511 1111.31 160.048C1112.5 157.5 1113.1 154.485 1113.1 151.003C1113.1 145.737 1111.78 141.661 1109.15 138.773C1106.6 135.8 1103.2 134.314 1098.96 134.314C1096.07 134.314 1093.56 134.994 1091.44 136.352C1089.32 137.626 1087.66 139.537 1086.47 142.085C1085.37 144.548 1084.82 147.521 1084.82 151.003C1084.82 156.268 1086.09 160.388 1088.64 163.36C1091.19 166.333 1094.63 167.819 1098.96 167.819ZM564.755 338.145C555.073 338.145 546.792 336.234 539.913 332.412C533.034 328.59 527.726 323.239 523.989 316.36C520.337 309.396 518.511 301.2 518.511 291.773C518.511 284.724 519.53 278.397 521.568 272.791C523.692 267.101 526.749 262.26 530.741 258.268C534.732 254.192 539.573 251.049 545.264 248.841C551.039 246.633 557.536 245.529 564.755 245.529C569.001 245.529 573.29 246.081 577.622 247.185C582.038 248.204 585.86 249.69 589.087 251.644C591.21 252.833 592.654 254.319 593.419 256.103C594.183 257.886 594.395 259.67 594.056 261.453C593.801 263.237 593.079 264.765 591.89 266.039C590.786 267.313 589.385 268.12 587.686 268.46C585.987 268.8 584.076 268.417 581.953 267.313C579.405 265.785 576.73 264.68 573.927 264.001C571.125 263.322 568.28 262.982 565.392 262.982C559.702 262.982 554.903 264.128 550.996 266.422C547.175 268.63 544.287 271.857 542.334 276.103C540.38 280.35 539.403 285.573 539.403 291.773C539.403 297.888 540.38 303.111 542.334 307.442C544.287 311.774 547.175 315.086 550.996 317.379C554.903 319.587 559.702 320.691 565.392 320.691C568.11 320.691 570.87 320.352 573.673 319.672C576.56 318.993 579.32 317.931 581.953 316.487C584.161 315.383 586.115 315.001 587.813 315.341C589.597 315.596 591.041 316.36 592.145 317.634C593.334 318.823 594.056 320.267 594.31 321.965C594.65 323.664 594.48 325.363 593.801 327.061C593.121 328.76 591.847 330.204 589.979 331.393C586.837 333.516 582.972 335.172 578.386 336.361C573.8 337.55 569.256 338.145 564.755 338.145ZM637.298 338.145C630.589 338.145 624.728 336.828 619.718 334.195C614.792 331.562 610.97 327.783 608.252 322.857C605.534 317.931 604.176 312.114 604.176 305.404C604.176 300.393 604.94 295.892 606.469 291.9C607.997 287.909 610.206 284.512 613.093 281.709C616.066 278.821 619.59 276.656 623.667 275.212C627.743 273.683 632.287 272.919 637.298 272.919C644.007 272.919 649.825 274.235 654.751 276.868C659.762 279.501 663.626 283.238 666.344 288.079C669.147 292.92 670.548 298.695 670.548 305.404C670.548 310.5 669.741 315.044 668.127 319.035C666.599 323.027 664.391 326.467 661.503 329.354C658.615 332.242 655.091 334.45 650.929 335.979C646.853 337.423 642.309 338.145 637.298 338.145ZM637.298 323.749C640.101 323.749 642.521 323.07 644.559 321.711C646.598 320.352 648.211 318.356 649.4 315.723C650.589 313.005 651.184 309.566 651.184 305.404C651.184 299.204 649.91 294.661 647.362 291.773C644.814 288.8 641.46 287.314 637.298 287.314C634.58 287.314 632.16 287.951 630.037 289.225C627.998 290.499 626.385 292.495 625.196 295.213C624.091 297.845 623.539 301.243 623.539 305.404C623.539 311.604 624.813 316.233 627.361 319.29C629.909 322.263 633.221 323.749 637.298 323.749ZM697.284 337.89C694.141 337.89 691.721 337.04 690.022 335.342C688.409 333.643 687.602 331.223 687.602 328.08V282.855C687.602 279.713 688.409 277.335 690.022 275.721C691.721 274.023 694.056 273.173 697.029 273.173C700.086 273.173 702.422 274.023 704.036 275.721C705.649 277.335 706.456 279.713 706.456 282.855V291.009L705.055 285.913C706.753 282.006 709.386 278.864 712.953 276.486C716.52 274.108 720.724 272.919 725.565 272.919C730.406 272.919 734.44 274.065 737.668 276.358C740.895 278.651 743.188 282.176 744.547 286.932H742.764C744.632 282.601 747.477 279.203 751.299 276.74C755.206 274.193 759.665 272.919 764.675 272.919C769.516 272.919 773.466 273.895 776.523 275.849C779.665 277.717 782.001 280.605 783.53 284.512C785.058 288.333 785.823 293.217 785.823 299.162V328.08C785.823 331.223 784.974 333.643 783.275 335.342C781.661 337.04 779.326 337.89 776.268 337.89C773.126 337.89 770.705 337.04 769.007 335.342C767.393 333.643 766.586 331.223 766.586 328.08V299.799C766.586 295.637 765.907 292.622 764.548 290.754C763.274 288.8 761.066 287.824 757.923 287.824C754.272 287.824 751.426 289.098 749.388 291.646C747.35 294.193 746.331 297.803 746.331 302.474V328.08C746.331 331.223 745.481 333.643 743.783 335.342C742.169 337.04 739.833 337.89 736.776 337.89C733.719 337.89 731.341 337.04 729.642 335.342C727.943 333.643 727.094 331.223 727.094 328.08V299.799C727.094 295.637 726.415 292.622 725.056 290.754C723.782 288.8 721.574 287.824 718.431 287.824C714.779 287.824 711.934 289.098 709.896 291.646C707.858 294.193 706.838 297.803 706.838 302.474V328.08C706.838 334.62 703.654 337.89 697.284 337.89ZM815.591 337.89C812.449 337.89 810.028 337.04 808.33 335.342C806.716 333.643 805.909 331.223 805.909 328.08V282.855C805.909 279.713 806.716 277.335 808.33 275.721C810.028 274.023 812.364 273.173 815.336 273.173C818.394 273.173 820.73 274.023 822.343 275.721C823.957 277.335 824.764 279.713 824.764 282.855V291.009L823.362 285.913C825.061 282.006 827.694 278.864 831.261 276.486C834.828 274.108 839.032 272.919 843.873 272.919C848.714 272.919 852.748 274.065 855.975 276.358C859.203 278.651 861.496 282.176 862.855 286.932H861.071C862.939 282.601 865.785 279.203 869.606 276.74C873.513 274.193 877.972 272.919 882.983 272.919C887.824 272.919 891.773 273.895 894.831 275.849C897.973 277.717 900.308 280.605 901.837 284.512C903.366 288.333 904.13 293.217 904.13 299.162V328.08C904.13 331.223 903.281 333.643 901.582 335.342C899.969 337.04 897.633 337.89 894.576 337.89C891.433 337.89 889.013 337.04 887.314 335.342C885.701 333.643 884.894 331.223 884.894 328.08V299.799C884.894 295.637 884.214 292.622 882.855 290.754C881.582 288.8 879.373 287.824 876.231 287.824C872.579 287.824 869.734 289.098 867.696 291.646C865.657 294.193 864.638 297.803 864.638 302.474V328.08C864.638 331.223 863.789 333.643 862.09 335.342C860.477 337.04 858.141 337.89 855.084 337.89C852.026 337.89 849.648 337.04 847.949 335.342C846.251 333.643 845.402 331.223 845.402 328.08V299.799C845.402 295.637 844.722 292.622 843.363 290.754C842.089 288.8 839.881 287.824 836.739 287.824C833.087 287.824 830.242 289.098 828.203 291.646C826.165 294.193 825.146 297.803 825.146 302.474V328.08C825.146 334.62 821.961 337.89 815.591 337.89ZM947.02 338.145C941.755 338.145 937.381 337.168 933.899 335.214C930.417 333.261 927.826 330.331 926.128 326.424C924.514 322.433 923.707 317.507 923.707 311.646V282.855C923.707 279.628 924.514 277.208 926.128 275.594C927.826 273.98 930.204 273.173 933.262 273.173C936.319 273.173 938.697 273.98 940.396 275.594C942.094 277.208 942.944 279.628 942.944 282.855V312.156C942.944 315.893 943.708 318.696 945.237 320.564C946.766 322.348 949.186 323.239 952.498 323.239C956.15 323.239 959.123 321.965 961.416 319.418C963.794 316.785 964.983 313.345 964.983 309.099V282.855C964.983 279.628 965.79 277.208 967.403 275.594C969.102 273.98 971.48 273.173 974.538 273.173C977.68 273.173 980.058 273.98 981.672 275.594C983.37 277.208 984.22 279.628 984.22 282.855V328.08C984.22 334.62 981.12 337.89 974.92 337.89C971.862 337.89 969.527 337.04 967.913 335.342C966.299 333.643 965.493 331.223 965.493 328.08V319.545L967.403 324.513C965.535 328.845 962.86 332.199 959.378 334.577C955.896 336.955 951.776 338.145 947.02 338.145ZM1013.88 337.89C1010.74 337.89 1008.32 337.04 1006.62 335.342C1005.01 333.643 1004.2 331.223 1004.2 328.08V282.855C1004.2 279.713 1005.01 277.335 1006.62 275.721C1008.32 274.023 1010.66 273.173 1013.63 273.173C1016.69 273.173 1019.02 274.023 1020.63 275.721C1022.25 277.335 1023.05 279.713 1023.05 282.855V290.117L1021.65 285.913C1023.61 281.751 1026.49 278.566 1030.32 276.358C1034.22 274.065 1038.64 272.919 1043.57 272.919C1048.58 272.919 1052.7 273.895 1055.92 275.849C1059.15 277.717 1061.57 280.605 1063.18 284.512C1064.8 288.333 1065.6 293.217 1065.6 299.162V328.08C1065.6 331.223 1064.76 333.643 1063.06 335.342C1061.44 337.04 1059.06 337.89 1055.92 337.89C1052.87 337.89 1050.49 337.04 1048.79 335.342C1047.17 333.643 1046.37 331.223 1046.37 328.08V300.054C1046.37 295.722 1045.56 292.622 1043.95 290.754C1042.42 288.8 1040.04 287.824 1036.81 287.824C1032.74 287.824 1029.47 289.098 1027 291.646C1024.63 294.193 1023.44 297.591 1023.44 301.837V328.08C1023.44 334.62 1020.25 337.89 1013.88 337.89ZM1094.74 337.762C1091.6 337.762 1089.18 336.871 1087.48 335.087C1085.87 333.219 1085.06 330.628 1085.06 327.316V283.747C1085.06 280.35 1085.87 277.76 1087.48 275.976C1089.18 274.108 1091.6 273.173 1094.74 273.173C1097.8 273.173 1100.14 274.108 1101.75 275.976C1103.45 277.76 1104.3 280.35 1104.3 283.747V327.316C1104.3 330.628 1103.49 333.219 1101.88 335.087C1100.26 336.871 1097.89 337.762 1094.74 337.762ZM1094.74 262.727C1091.18 262.727 1088.42 261.92 1086.46 260.307C1084.59 258.608 1083.66 256.23 1083.66 253.173C1083.66 250.03 1084.59 247.652 1086.46 246.038C1088.42 244.34 1091.18 243.491 1094.74 243.491C1098.31 243.491 1101.03 244.34 1102.9 246.038C1104.76 247.652 1105.7 250.03 1105.7 253.173C1105.7 256.23 1104.76 258.608 1102.9 260.307C1101.03 261.92 1098.31 262.727 1094.74 262.727ZM1154.95 338.145C1149.09 338.145 1144.16 337.168 1140.17 335.214C1136.26 333.261 1133.33 330.416 1131.38 326.679C1129.51 322.942 1128.58 318.229 1128.58 312.538V288.588H1123.23C1120.85 288.588 1118.98 287.951 1117.62 286.677C1116.35 285.403 1115.71 283.662 1115.71 281.454C1115.71 279.076 1116.35 277.293 1117.62 276.103C1118.98 274.83 1120.85 274.193 1123.23 274.193H1128.58V264.511C1128.58 261.283 1129.43 258.863 1131.12 257.249C1132.82 255.551 1135.2 254.701 1138.26 254.701C1141.4 254.701 1143.78 255.551 1145.39 257.249C1147.01 258.863 1147.81 261.283 1147.81 264.511V274.193H1159.92C1162.29 274.193 1164.12 274.83 1165.39 276.103C1166.67 277.293 1167.3 279.076 1167.3 281.454C1167.3 283.662 1166.67 285.403 1165.39 286.677C1164.12 287.951 1162.29 288.588 1159.92 288.588H1147.81V311.774C1147.81 315.341 1148.62 318.016 1150.23 319.8C1151.93 321.583 1154.61 322.475 1158.26 322.475C1159.53 322.475 1160.72 322.348 1161.83 322.093C1162.93 321.838 1163.95 321.668 1164.88 321.583C1166.07 321.498 1167.05 321.88 1167.81 322.73C1168.58 323.494 1168.96 325.235 1168.96 327.953C1168.96 329.991 1168.62 331.775 1167.94 333.304C1167.26 334.832 1166.07 335.936 1164.37 336.616C1163.27 337.04 1161.74 337.38 1159.79 337.635C1157.92 337.975 1156.31 338.145 1154.95 338.145ZM1199.04 360.821C1196.83 360.821 1195 360.226 1193.56 359.037C1192.11 357.848 1191.27 356.277 1191.01 354.324C1190.76 352.455 1191.1 350.459 1192.03 348.336L1200.56 329.482V337.38L1178.02 285.658C1177.17 283.45 1176.87 281.412 1177.12 279.543C1177.46 277.59 1178.4 276.061 1179.93 274.957C1181.54 273.768 1183.75 273.173 1186.55 273.173C1188.84 273.173 1190.67 273.725 1192.03 274.83C1193.47 275.849 1194.79 277.845 1195.98 280.817L1211.01 319.035H1206.93L1222.48 280.69C1223.67 277.802 1224.98 275.849 1226.43 274.83C1227.95 273.725 1229.99 273.173 1232.54 273.173C1234.75 273.173 1236.49 273.768 1237.76 274.957C1239.12 276.061 1239.93 277.547 1240.18 279.416C1240.52 281.284 1240.18 283.322 1239.17 285.531L1209.23 353.432C1207.95 356.319 1206.51 358.273 1204.9 359.292C1203.37 360.311 1201.41 360.821 1199.04 360.821Z" fill="#F5F5F5"/>
</svg>