<svg width="32" height="32" viewBox="0 0 32 32" fill="none" xmlns="http://www.w3.org/2000/svg">
<path d="M15.8588 5.95789C15.8588 5.78481 15.7894 5.61881 15.6659 5.49641C15.5423 5.37402 15.3747 5.30526 15.2 5.30526C15.0253 5.30526 14.8577 5.37402 14.7341 5.49641C14.6106 5.61881 14.5412 5.78481 14.5412 5.95789V7.95495C11.5765 8.28126 9.27059 10.7613 9.27059 13.7895V21.5036L7.17553 23.5789H23.2245L21.1294 21.5036V13.7895C21.1294 10.7613 18.8235 8.28126 15.8588 7.95495V5.95789ZM15.2 4C15.7242 4 16.2269 4.20628 16.5976 4.57345C16.9682 4.94063 17.1765 5.43863 17.1765 5.95789V6.88463C20.2202 7.73305 22.4471 10.5263 22.4471 13.7895V20.9684L26.4 24.8842H4L7.95294 20.9684V13.7895C7.95294 10.5263 10.1798 7.73305 13.2235 6.88463V5.95789C13.2235 5.43863 13.4318 4.94063 13.8024 4.57345C14.1731 4.20628 14.6758 4 15.2 4ZM15.2 28.8C14.4406 28.8002 13.7045 28.5404 13.1162 28.0647C12.5279 27.589 12.1236 26.9265 11.9718 26.1895H13.3421C13.4776 26.5704 13.7291 26.9002 14.0619 27.1336C14.3946 27.3669 14.7923 27.4922 15.2 27.4922C15.6077 27.4922 16.0054 27.3669 16.3381 27.1336C16.6709 26.9002 16.9224 26.5704 17.0579 26.1895H18.4282C18.2764 26.9265 17.8721 27.589 17.2838 28.0647C16.6955 28.5404 15.9594 28.8002 15.2 28.8Z" fill="#F5F5F5"/>
<circle cx="20.8008" cy="11.2002" r="4" fill="#F37413"/>
</svg>
