<svg width="49" height="50" viewBox="0 0 49 50" fill="none" xmlns="http://www.w3.org/2000/svg">
<path d="M43.8218 34.7892C43.823 34.7926 43.824 34.7957 43.825 34.7986V34.8424L43.845 34.9409C43.9458 35.4372 43.9977 35.9416 44 36.4474C43.9941 36.9147 43.9482 37.3808 43.8627 37.8407C43.8617 37.8442 43.8597 37.8513 43.8559 37.8632C43.8519 37.8757 43.8472 37.8897 43.8403 37.9103C43.8341 37.9288 43.8253 37.9551 43.8166 37.9819C43.7915 38.0596 43.7476 38.1997 43.7288 38.3744C43.6577 38.6389 43.5736 38.9 43.4767 39.1567L43.2815 39.6175C43.1483 39.9008 42.9971 40.176 42.8289 40.4413L42.5871 40.8125L42.5615 40.8518L42.5578 40.8588L42.5512 40.8653L42.5002 40.9151L42.4568 40.9717C41.7369 41.9094 40.8018 42.6726 39.7242 43.199C38.6466 43.7254 37.457 44 36.25 44H34.3394C34.9257 43.7803 35.4651 43.4404 35.9184 42.9948C36.7591 42.1686 37.2353 41.046 37.2353 39.8709C37.2353 38.6958 36.7591 37.5732 35.9184 36.747L35.9163 36.7449L30.6685 31.6179C30.6681 31.6176 30.6678 31.6173 30.6675 31.617C29.8258 30.7903 28.6878 30.3273 27.5041 30.3224L27.501 30.3224C26.3418 30.3213 25.2232 30.7597 24.3819 31.5518L24.3809 31.5528L19.1319 36.51C19.1316 36.5102 19.1314 36.5105 19.1311 36.5108C18.7046 36.9126 18.3621 37.3937 18.1242 37.9275C17.8861 38.4616 17.7577 39.0373 17.7472 39.6214C17.7366 40.2055 17.8441 40.7854 18.0628 41.3276C18.2815 41.8699 18.6069 42.3631 19.0191 42.7798L19.0191 42.7798L19.0264 42.7871C19.6379 43.3925 20.4049 43.8087 21.2339 44H18.75C17.543 44 16.3535 43.7254 15.2758 43.199C14.2017 42.6743 13.2691 41.9143 12.5501 40.9807L12.4698 40.8707L12.463 40.8615L12.4584 40.8554L12.4385 40.8176L12.4129 40.7784L12.1711 40.4071C12.0029 40.1418 11.8517 39.8666 11.7185 39.5833L11.5234 39.1226C11.4182 38.844 11.3281 38.5603 11.2533 38.2727C11.2356 38.1931 11.215 38.1244 11.1988 38.0737C11.1897 38.0451 11.1806 38.0182 11.1739 37.9981L11.1729 37.995C11.1662 37.975 11.1617 37.9616 11.1575 37.9488V37.9141L11.1403 37.8224C11.055 37.3696 11.0082 36.9108 11.0001 36.4506C11.0076 35.9725 11.0594 35.4959 11.1549 35.0268L11.1551 35.026C11.1559 35.0235 11.157 35.0201 11.1585 35.0157C11.1655 34.9958 11.1703 34.9833 11.1779 34.9633C11.184 34.9474 11.1919 34.9268 11.2041 34.894L11.206 34.8888C11.2358 34.8089 11.3 34.6364 11.3236 34.4221C11.3894 34.1676 11.4719 33.9174 11.5707 33.6729C11.6386 33.5145 11.7085 33.3765 11.8402 33.1351C11.8847 33.0537 11.9253 32.9781 11.9634 32.9072C12.0622 32.7232 12.1436 32.5718 12.2286 32.4367C12.3408 32.2586 12.4517 32.1091 12.5983 31.9372L11.8497 31.2986L12.5983 31.9372C12.6671 31.8566 12.7301 31.7812 12.7893 31.7104C12.9062 31.5706 13.0085 31.4482 13.1121 31.3369C13.203 31.2391 13.2874 31.1661 13.4106 31.0595C13.4621 31.015 13.5204 30.9646 13.5887 30.904L14.2189 30.3882L14.2209 30.3866L14.7904 29.9229C14.9811 29.8122 15.1787 29.7128 15.3821 29.6254L15.3904 29.6219L15.3986 29.6182L16.0449 29.3267C16.2808 29.243 16.5217 29.1731 16.7663 29.1176L16.794 29.1113L16.8212 29.1035C17.0124 29.0485 17.2074 29.0067 17.4048 28.9783L17.4653 28.9696L17.5244 28.9536L17.8394 28.8681L18.3451 28.7309L18.5201 28.237C19.1633 26.4213 20.3714 24.8424 21.9805 23.723C23.5899 22.6033 25.5193 22 27.5 22C29.4807 22 31.4101 22.6033 33.0195 23.723C34.6286 24.8424 35.8367 26.4213 36.4799 28.237L36.6198 28.6317L36.9992 28.809L37.4017 28.9971L37.536 29.0598L37.6827 29.0809C37.8801 29.1093 38.0751 29.1511 38.2663 29.2061L38.2935 29.2139L38.3212 29.2202C38.5658 29.2757 38.8067 29.3455 39.0426 29.4293L39.689 29.7208L39.6971 29.7245L39.7054 29.728C39.9244 29.8221 40.1368 29.9301 40.341 30.0513L40.8957 30.4126L41.4871 30.9278C41.5616 30.994 41.6228 31.0467 41.6761 31.0926C41.7946 31.1947 41.8747 31.2637 41.9782 31.3741C42.0447 31.4449 42.1193 31.5174 42.1763 31.5729L42.1834 31.5798C42.2376 31.6325 42.281 31.6747 42.319 31.7135C42.358 31.8211 42.4066 31.9069 42.446 31.9676C42.5211 32.0836 42.6072 32.1753 42.645 32.2157L42.6454 32.2161C42.6678 32.24 42.686 32.2593 42.701 32.2751C42.7569 32.3344 42.7674 32.3455 42.7821 32.3679C42.9097 32.5617 43.0448 32.8103 43.1333 32.9977C43.1881 33.1136 43.2471 33.2263 43.2941 33.3158C43.3014 33.3299 43.3085 33.3433 43.3152 33.3561C43.3676 33.4566 43.403 33.5269 43.4295 33.5881C43.5383 33.8573 43.6274 34.1336 43.696 34.4148L43.6999 34.4307L43.7043 34.4465C43.7283 34.5322 43.7555 34.6088 43.7753 34.6627C43.7855 34.6906 43.7929 34.7105 43.7991 34.7269C43.8078 34.7502 43.8139 34.7666 43.8218 34.7892Z" fill="#F37413" stroke="#F37413" stroke-width="2" stroke-linecap="round"/>
<path d="M28.8659 33.4862C28.518 33.1745 28.0502 33 27.563 33C27.0759 33 26.6081 33.1745 26.2602 33.4862L20.6766 38.4182C20.4791 38.5671 20.3174 38.7517 20.2015 38.9603C20.0856 39.1689 20.0181 39.3972 20.0032 39.6307C19.9882 39.8643 20.0262 40.0982 20.1147 40.3177C20.2032 40.5373 20.3403 40.7378 20.5174 40.9067C20.6946 41.0756 20.908 41.2093 21.1443 41.2994C21.3806 41.3896 21.6347 41.4342 21.8907 41.4305C22.1467 41.4268 22.3991 41.3748 22.6322 41.2779C22.8652 41.181 23.0739 41.0412 23.2451 40.8672L25.6832 38.7073V48.2993C25.6832 48.7503 25.8793 49.1829 26.2284 49.5019C26.5774 49.8208 27.0508 50 27.5444 50C28.0381 50 28.5115 49.8208 28.8605 49.5019C29.2095 49.1829 29.4056 48.7503 29.4056 48.2993V38.7924L31.8066 41.0033C31.9796 41.1627 32.1854 41.2892 32.4122 41.3755C32.639 41.4619 32.8823 41.5063 33.128 41.5063C33.3737 41.5063 33.617 41.4619 33.8438 41.3755C34.0706 41.2892 34.2764 41.1627 34.4495 41.0033C34.6239 40.8452 34.7624 40.6571 34.8569 40.4498C34.9514 40.2426 35 40.0203 35 39.7958C35 39.5713 34.9514 39.349 34.8569 39.1417C34.7624 38.9345 34.6239 38.7464 34.4495 38.5883L28.8659 33.4862Z" fill="#F37413"/>
<path d="M24.5 1H9.89291C8.72341 0.999998 7.5654 1.2094 6.48517 1.6162C5.40495 2.02301 4.42372 2.61924 3.59768 3.37076C2.77164 4.12227 2.11701 5.01431 1.67126 5.9958C1.22552 6.97729 0.99742 8.02895 1.00002 9.09057V22.9274C1.00002 25.0684 1.93695 27.1217 3.60469 28.6356C4.43047 29.3852 5.41081 29.9798 6.48975 30.3855C7.56868 30.7912 8.72508 31 9.89291 31H24.5C26.8586 31 29.1205 30.1495 30.7882 28.6356C32.456 27.1217 33.3929 25.0684 33.3929 22.9274V9.09281C33.3962 8.03092 33.1685 6.97889 32.723 5.99701C32.2776 5.01512 31.623 4.1227 30.7968 3.37089C29.9707 2.61908 28.9892 2.02266 27.9087 1.61582C26.8282 1.20897 25.6698 0.999701 24.5 1ZM48 10.247V21.7777C48 22.3391 47.8244 22.8915 47.4929 23.3675C47.1577 23.8453 46.6822 24.2287 46.12 24.4746C45.5619 24.7281 44.9332 24.8251 44.3142 24.753C43.7038 24.6871 43.1248 24.4712 42.6395 24.1287L34.6619 18.3174C34.2783 18.0314 33.9682 17.6729 33.7533 17.2668C33.5384 16.8607 33.4238 16.4168 33.4176 15.9663C33.4176 15.5172 33.529 15.0771 33.7466 14.6751C33.9742 14.2979 34.2859 13.9678 34.6619 13.7051L42.6395 7.94087C43.1251 7.59741 43.7052 7.38149 44.3167 7.31662C44.9351 7.24476 45.5634 7.34132 46.12 7.59506C46.6756 7.83278 47.1465 8.20744 47.4789 8.67633C47.8113 9.14522 47.9919 9.68946 48 10.247Z" stroke="#F37413" stroke-width="2" stroke-linecap="round" stroke-linejoin="round"/>
</svg>
