<svg width="10" height="10" viewBox="0 0 10 10" fill="none" xmlns="http://www.w3.org/2000/svg">
<g clip-path="url(#clip0_2_8061)">
<path d="M7.5 3.33325C7.5 2.67021 7.23661 2.03433 6.76777 1.56548C6.29893 1.09664 5.66304 0.833252 5 0.833252C4.33696 0.833252 3.70107 1.09664 3.23223 1.56548C2.76339 2.03433 2.5 2.67021 2.5 3.33325C2.5 6.24992 1.25 7.08325 1.25 7.08325H8.75C8.75 7.08325 7.5 6.24992 7.5 3.33325Z" stroke="#F37413" stroke-linecap="round" stroke-linejoin="round"/>
<path d="M5.72096 8.75C5.64771 8.87628 5.54256 8.9811 5.41606 9.05397C5.28955 9.12684 5.14612 9.16519 5.00013 9.16519C4.85414 9.16519 4.71071 9.12684 4.5842 9.05397C4.4577 8.9811 4.35255 8.87628 4.2793 8.75" stroke="#F37413" stroke-linecap="round" stroke-linejoin="round"/>
</g>
<defs>
<clipPath id="clip0_2_8061">
<rect width="10" height="10" fill="white"/>
</clipPath>
</defs>
</svg>
